<svg xmlns="http://www.w3.org/2000/svg" viewBox="0 0 114.4 50.02"><defs><style>.cls-1{fill:#fff;}.cls-2{fill:#f6f8f8;}</style></defs><title>cloud</title><g id="Layer_2" data-name="Layer 2"><g id="Layer_1-2" data-name="Layer 1"><path class="cls-1" d="M108.82,25h0a13.85,13.85,0,0,0-13.55-1.71c0-.35,0-.69,0-1A22.24,22.24,0,0,0,73,0l-.89,0A22.22,22.22,0,0,0,52.24,14.43a17.37,17.37,0,0,0-11.35-4.21h-.21A17.47,17.47,0,0,0,23.49,26.11,13.88,13.88,0,1,0,13.89,50h86.62a13.89,13.89,0,0,0,8.31-25Z"/><path class="cls-2" d="M40.68,45.18a17.48,17.48,0,0,1,0-35,19.09,19.09,0,0,0,0,35Z"/><path class="cls-2" d="M72.17,44.46A22.24,22.24,0,0,1,72.15,0a24.41,24.41,0,0,0,0,44.44Z"/><path class="cls-2" d="M108.8,25A14.88,14.88,0,0,0,91,46.21,13.89,13.89,0,0,1,108.8,25Z"/></g></g></svg>