<svg xmlns="http://www.w3.org/2000/svg" viewBox="0 0 36.26 36.26"><defs><style>.cls-1{fill:#ececec;}.cls-2{fill:#444;}</style></defs><title>close.svg</title><g id="Layer_2" data-name="Layer 2"><g id="Layer_1-2" data-name="Layer 1"><circle class="cls-1" cx="18.13" cy="18.13" r="18.13"/><path class="cls-2" d="M24,22.89A.76.76,0,0,1,24,24l0,0a.76.76,0,0,1-1.07,0l-4.54-4.54L13.81,24a.79.79,0,0,1-.54.22.76.76,0,0,1-.54-1.28h0l4.54-4.54-4.54-4.54a.75.75,0,0,1,0-1.06h0a.77.77,0,0,1,1.07,0l4.54,4.54,4.54-4.54a.76.76,0,0,1,1.11,1l-4.54,4.54Z"/></g></g></svg>