<svg xmlns="http://www.w3.org/2000/svg" viewBox="0 0 692.11 318.49"><defs><style>.cls-1{fill:#fff;}.cls-2{fill:#d18a5f;}.cls-3{fill:#520;}.cls-4{fill:#bd6500;}</style></defs><title>cookie2</title><g id="Layer_2" data-name="Layer 2"><g id="Layer_1-2" data-name="Layer 1"><path d="M262.79,170.91a30.78,30.78,0,0,0-5.54-12,18.92,18.92,0,0,1-3.22-6.33c-1.77-5.92-1.74-9.71-1.71-14.5a73,73,0,0,0-.68-12.1C248.42,104.78,234,90.4,228,85.19c-7-6-11.35-7.39-35.46-14.9l-8.22-2.57c-6.15-1.92-11.42-3.59-16-5-22.25-7-28.23-8.92-35.77-8.92-1.17,0-2.38,0-3.8.16-8.25.62-18.63,4.79-41.39,13.94-22.4,9-34.74,14-43.24,21.46-12.92,11.38-18.95,24.19-25.33,37.76-8.09,17.19-11.06,31.51-13,41C2.86,182.22.55,193.38.08,202.91c-.57,11.61,1.76,20.37,7.32,27.55a33.11,33.11,0,0,0,12.1,9.6c3,1.57,4.25,2.22,5.8,5.13a25.56,25.56,0,0,1,2.35,7.93,47.89,47.89,0,0,0,18.16,30.74c8.33,6.13,15.64,6.59,21.52,7,4.39.28,7.56.48,11.67,2.8a12.07,12.07,0,0,1,4.56,4.17,42,42,0,0,0,12.16,11.13c5.61,3.58,15,9.57,27.4,9.57h.46c7-.08,11.41-2.14,15.25-4a46.64,46.64,0,0,1,10.47-3.81,23.54,23.54,0,0,1,6.53-.78h2c2.79,0,6.41-.08,12.14-.62,17.33-1.65,31-2.95,42.89-13a55.89,55.89,0,0,0,11.68-14.16,58.58,58.58,0,0,0,7-16.91c.46-1.67.89-3.25,1.43-4.8,2.62-7.5,6.43-10.62,11.27-14.57,5.52-4.53,12.4-10.15,15.74-21.95a25.61,25.61,0,0,0,.92-10.79c-.23-2.52-.55-6,.46-14.91.42-3.69.87-6.59,1.27-9.15C263.59,182.87,264.36,177.93,262.79,170.91Z"/><path class="cls-1" d="M253.36,173c-1.84-8.21-5.85-8.56-8.59-17.71-3.61-12.09-1.15-17.86-2.68-27.91-2.82-18.53-16.05-31.15-20.4-34.89-6.07-5.24-9.55-6-40.25-15.57-39.53-12.36-42.81-14.06-51.95-13.38-6.75.51-17.34,4.76-38.51,13.27C68.85,85.73,57.64,90.3,50.53,96.57c-11.42,10.07-16.72,21.32-23,34.63C20.1,147,17.33,160,15.25,170c-5.69,27.53-8.94,43.22-.21,54.51,6.56,8.48,13.38,5.94,18.79,16.1,4.61,8.69,2,14.87,8.58,25.23a36,36,0,0,0,9.13,10.2c11.51,8.47,19.5,2,32.2,9.13,8.62,4.85,6.17,8.54,17.18,15.56,5.14,3.28,12.8,8.17,22.54,8.05,9.13-.1,10.84-4.5,23.62-7.51,8.21-1.94,8.23-.3,22-1.61,17-1.62,28.2-2.83,37.57-10.74a46.21,46.21,0,0,0,9.66-11.81c5-8.21,5.3-13.51,7.52-19.86,7-20,21.76-18.06,26.84-36,2.07-7.31-1-5.77,1.07-24.15C253.19,184.4,255.05,180.55,253.36,173Z"/><path class="cls-2" d="M206.66,289c-9.37,7.91-20.53,9.12-37.57,10.74-13.78,1.31-13.8-.33-22,1.61-12.78,3-14.49,7.41-23.62,7.51-9.74.12-17.4-4.77-22.54-8.05-11-7-8.56-10.71-17.18-15.56-12.7-7.16-20.69-.66-32.2-9.13a36,36,0,0,1-9.13-10.2c-6.57-10.36-4-16.54-8.58-25.23C28.42,230.49,21.6,233,15,224.55c-8.73-11.29-5.48-27,.21-54.51,2.08-10,4.85-23,12.3-38.84,6.26-13.31,11.56-24.56,23-34.63C57.64,90.3,68.85,85.73,91,76.83c21.17-8.51,31.76-12.76,38.51-13.27,9.14-.68,12.42,1,51.95,13.38,30.7,9.61,34.18,10.33,40.25,15.57,4.35,3.74,17.58,16.36,20.4,34.89,1.53,10-.93,15.82,2.68,27.91,2.74,9.15,6.75,9.5,8.59,17.71,1.69,7.53-.17,11.38-1.61,24.16-2.07,18.38,1,16.84-1.07,24.15-5.08,17.9-19.88,16-26.84,36-2.22,6.35-2.5,11.65-7.52,19.86A46.21,46.21,0,0,1,206.66,289Z"/><path d="M144.29,227.19a1.09,1.09,0,0,0,1.08-1.15c-.46-8-5.72-14.28-12.15-14.28s-11.68,6.3-12.14,14.28a1.09,1.09,0,0,0,1.08,1.15Z"/><ellipse class="cls-1" cx="191.05" cy="211.05" rx="12.25" ry="9.67"/><ellipse class="cls-1" cx="75.39" cy="211.05" rx="12.25" ry="9.67"/><circle class="cls-3" cx="107.46" cy="272.89" r="7.69"/><circle class="cls-3" cx="50.67" cy="148.77" r="13.6"/><circle class="cls-3" cx="32.85" cy="201.38" r="7.27"/><circle class="cls-3" cx="203.3" cy="135.16" r="11.53"/><circle class="cls-3" cx="197.73" cy="253.1" r="9.17"/><circle class="cls-3" cx="231.83" cy="176.74" r="4.82"/><circle class="cls-3" cx="145.37" cy="275.77" r="4.82"/><circle class="cls-3" cx="103.65" cy="105.23" r="11.5"/><circle class="cls-3" cx="52.52" cy="250.74" r="6.81"/><circle class="cls-3" cx="162.96" cy="88.92" r="9.37"/><ellipse cx="111.36" cy="177.98" rx="16.1" ry="20.4"/><ellipse class="cls-1" cx="118" cy="173.1" rx="5.14" ry="6.55"/><ellipse cx="155.09" cy="177.98" rx="16.1" ry="20.4"/><ellipse class="cls-1" cx="148.45" cy="182.86" rx="5.14" ry="6.55"/><path class="cls-3" d="M678.79,148.81c-6.21-8.39-13.25-5.69-18.79-16.1-4.62-8.68-2-14.86-8.59-25.23a35.78,35.78,0,0,0-9.12-10.2c-11.51-8.47-19.51-2-32.21-9.12-8.61-4.86-6.17-8.54-17.17-15.57-5.14-3.28-12.8-8.17-22.55-8-9.13.11-10.84,4.5-23.62,7.51-8.2,1.94-8.22.3-22,1.61-17,1.63-28.2,2.83-37.58,10.74a46.43,46.43,0,0,0-9.66,11.81c-5,8.21-5.3,13.51-7.51,19.86-7,20-21.77,18.06-26.84,36-2.07,7.31,1,5.78-1.07,24.16-1.45,12.77-3.3,16.62-1.62,24.15,1.85,8.21,5.86,8.56,8.59,17.71,3.61,12.09,1.16,17.87,2.69,27.91,2.81,18.53,16.05,31.15,20.39,34.89,4,3.43,7.92,5.81,40.26,15.57,25.87,7.8,38.94,11.7,45.63,11.27,19-1.2,19.16-10.15,44.55-15.56,24.71-5.27,30.44,1.95,42.94-5.91,13.47-8.47,18.58-24.25,22.54-36.5,3.49-10.78,2.45-13.39,5.37-34.35C679.47,172,687.16,160.12,678.79,148.81Z"/><path d="M686.55,143.06a31.15,31.15,0,0,0-12.11-9.68c-3.05-1.56-4.31-2.2-5.91-5.21a25,25,0,0,1-2.35-7.93c-.88-4.73-2-10.61-6.61-17.93A45.48,45.48,0,0,0,648,89.5c-8.32-6.12-15.63-6.59-21.51-7-4.39-.28-7.56-.48-11.67-2.8a12.1,12.1,0,0,1-4.57-4.17A42,42,0,0,0,598.1,64.44c-5.61-3.57-15-9.56-27.4-9.56h-.45c-7.06.08-11.41,2.15-15.25,4a47.31,47.31,0,0,1-10.48,3.8,23.1,23.1,0,0,1-6.52.78h-2a119.42,119.42,0,0,0-12.14.62c-17.33,1.64-31,3-42.89,13a56,56,0,0,0-11.67,14.16,58.37,58.37,0,0,0-7,16.91c-.45,1.67-.88,3.25-1.43,4.8-2.61,7.5-6.43,10.62-11.26,14.58-5.53,4.52-12.41,10.14-15.75,21.94a25.83,25.83,0,0,0-.92,10.8c.23,2.52.55,6-.46,14.9-.41,3.69-.86,6.59-1.26,9.15-1,6.25-1.75,11.18-.17,18.2a30.71,30.71,0,0,0,5.54,12,19.06,19.06,0,0,1,3.21,6.34c1.77,5.91,1.75,9.7,1.72,14.49a74.13,74.13,0,0,0,.67,12.11c3.22,21.16,17.61,35.55,23.64,40.75,5.56,4.79,10.78,7.54,43.78,17.5,27.63,8.33,39.16,11.72,47.38,11.72.56,0,1.12,0,1.65-.06,11.82-.74,18.13-4.2,24.23-7.55a68.89,68.89,0,0,1,21.72-8.2,79.34,79.34,0,0,1,17.36-1.92c1.74,0,3.36,0,4.93.1s2.87.09,4.29.09h0a33.8,33.8,0,0,0,19.49-5.45c16.44-10.33,22.31-28.46,26.59-41.7,2.56-7.89,3-12.32,3.79-19.66.41-4,.94-9,2-16.34,2-14.18,4.12-24.87,5.84-33.46C692.48,165,694.69,154.05,686.55,143.06Z"/><circle class="cls-3" cx="659.38" cy="182.61" r="4.82"/><path class="cls-2" d="M487.16,84.4c9.38-7.91,20.54-9.11,37.58-10.74,13.78-1.31,13.8.33,22-1.61,12.78-3,14.49-7.4,23.62-7.51,9.75-.12,17.41,4.77,22.55,8,11,7,8.56,10.71,17.17,15.57,12.7,7.16,20.7.65,32.21,9.12a35.78,35.78,0,0,1,9.12,10.2c6.57,10.37,4,16.55,8.59,25.23,5.54,10.41,12.58,7.71,18.79,16.1,8.37,11.31.68,23.14-5.37,66.56-2.92,21-1.88,23.57-5.37,34.35-4,12.25-9.07,28-22.54,36.5-12.5,7.86-18.23.64-42.94,5.91C577.18,297.54,577,306.49,558,307.69c-6.69.43-19.76-3.47-45.63-11.27-32.34-9.76-36.28-12.14-40.26-15.57-4.34-3.74-17.58-16.36-20.39-34.89-1.53-10,.92-15.82-2.69-27.91-2.73-9.15-6.74-9.5-8.59-17.71-1.68-7.53.17-11.38,1.62-24.15,2.07-18.38-1-16.85,1.07-24.16,5.07-17.9,19.87-16,26.84-36,2.21-6.35,2.5-11.65,7.51-19.86A46.43,46.43,0,0,1,487.16,84.4Z"/><ellipse cx="539.27" cy="177.8" rx="16.1" ry="20.4"/><ellipse class="cls-1" cx="539.36" cy="188.83" rx="6.55" ry="5.14"/><ellipse class="cls-1" cx="534.41" cy="163.54" rx="3.44" ry="2.7" transform="translate(-4.54 311.43) rotate(-32.36)"/><ellipse cx="583" cy="177.8" rx="16.1" ry="20.4"/><ellipse class="cls-1" cx="582.91" cy="188.83" rx="6.55" ry="5.14"/><ellipse class="cls-1" cx="587.86" cy="163.54" rx="2.7" ry="3.44" transform="translate(135.07 572.57) rotate(-57.64)"/><ellipse cx="561.13" cy="232.48" rx="12.18" ry="15.43"/><ellipse class="cls-1" cx="618.96" cy="210.87" rx="12.25" ry="9.67"/><ellipse class="cls-1" cx="503.3" cy="210.87" rx="12.25" ry="9.67"/><circle class="cls-3" cx="486.7" cy="134.98" r="7.69"/><circle class="cls-3" cx="534.41" cy="113.56" r="13.6"/><circle class="cls-3" cx="576.36" cy="92.69" r="7.27"/><circle class="cls-3" cx="631.21" cy="134.98" r="11.53"/><circle class="cls-3" cx="628.25" cy="256.83" r="9.17"/><circle class="cls-3" cx="592.67" cy="273.68" r="4.82"/><circle class="cls-3" cx="534.41" cy="267.45" r="11.5"/><circle class="cls-3" cx="482.89" cy="257.37" r="6.81"/><circle class="cls-3" cx="464.26" cy="188.83" r="9.37"/><path class="cls-4" d="M469.71,159.37c-1,12.22-8.08,21-19,34.16-8.82,10.67-10,9.53-14.42,16.7-6.9,11.17-5,15.48-11.39,22-6.81,7-15.68,8.93-21.63,10.25-12.75,2.81-13.63-1.52-23.15,1.14C366.09,247.54,365,257.8,350.91,260a35.94,35.94,0,0,1-13.66-.76c-12-2.68-14.51-8.89-23.91-11.77-11-3.36-14,3.26-24.68,1.9-14.15-1.81-23-15.2-38.39-38.7-5.63-8.56-12.84-19.69-18.77-36.15-5-13.85-9.19-25.55-8.24-40.74.6-9.47,5.29-20.63,14.65-42.56,9-21,13.43-31.48,17.85-36.62,6-6.94,9.49-8.06,46.19-27.27,28.5-14.91,31.47-16.86,39.47-17.45,5.72-.43,24-.86,39.1,10.24,8.18,6,10.53,11.85,21.63,17.84,8.4,4.54,11.49,2,18.6,6.45,6.52,4.14,7.93,8.17,15.94,18.22C448.22,77.05,449.3,73.79,453,80.42c9.07,16.25-2.73,25.37,6.45,44.41,2.92,6.06,6.47,10,8.73,19.36A46.28,46.28,0,0,1,469.71,159.37Z"/><path class="cls-4" d="M334.4,165.19a1.08,1.08,0,0,0-1.08,1.14c.46,8,5.73,14.28,12.15,14.28s11.68-6.29,12.15-14.28a1.08,1.08,0,0,0-1.08-1.14Z"/><ellipse class="cls-4" cx="403.3" cy="164.48" rx="12.25" ry="9.67"/><ellipse class="cls-4" cx="287.64" cy="164.48" rx="12.25" ry="9.67"/><circle class="cls-4" cx="278.72" cy="100.12" r="7.69"/><circle class="cls-4" cx="325.1" cy="62.88" r="13.6"/><circle class="cls-4" cx="379.11" cy="62.88" r="7.27"/><circle class="cls-4" cx="415.55" cy="88.59" r="11.53"/><circle class="cls-4" cx="428.63" cy="141.03" r="9.17"/><circle class="cls-4" cx="316.32" cy="229.16" r="4.82"/><circle class="cls-4" cx="410.73" cy="209.56" r="4.82"/><circle class="cls-4" cx="353.68" cy="222.47" r="11.5"/><circle class="cls-4" cx="264.77" cy="204.17" r="6.81"/><circle class="cls-4" cx="248.59" cy="136.22" r="9.37"/><ellipse class="cls-4" cx="323.61" cy="131.4" rx="16.1" ry="20.4"/><ellipse class="cls-4" cx="324.34" cy="120.25" rx="2.09" ry="1.64" transform="translate(9.97 264.57) rotate(-45)"/><ellipse class="cls-4" cx="330.24" cy="126.52" rx="5.14" ry="6.55"/><ellipse class="cls-4" cx="367.33" cy="131.4" rx="16.1" ry="20.4"/><ellipse class="cls-4" cx="368.07" cy="120.25" rx="2.09" ry="1.64" transform="translate(22.77 295.49) rotate(-45)"/><path d="M470.55,125c-.86-1.5-1.67-2.92-2.39-4.4-3.45-7.15-3-12.06-2.34-18.27.72-7.1,1.6-16-4.38-26.65a25.7,25.7,0,0,0-7-8.29c-1.95-1.61-4.61-3.83-10.22-10.86-2.31-2.91-4-5.27-5.57-7.37-3.73-5.1-6.67-9.13-12.75-13a30.87,30.87,0,0,0-12.42-4.58,19.06,19.06,0,0,1-6.76-2.21c-5.43-2.93-8.09-5.63-11.46-9a73.63,73.63,0,0,0-9-8.08C371.71,1.6,354.8,0,346,0c-1.81,0-3.6.06-5.3.19-9.22.68-13.25,2.8-35.62,14.54l-7.62,4c-5.71,3-10.62,5.54-14.86,7.75C259,38.76,254.7,41,248.44,48.25,243,54.52,238.65,64.81,229,87.38c-9.47,22.2-14.69,34.43-15.4,45.75-1.08,17.18,3.71,30.5,8.79,44.61,6.44,17.88,14.47,30.1,19.78,38.19,7.93,12.06,14.19,21.59,20.6,28.66,7.8,8.62,15.64,13.16,24.65,14.31a31.37,31.37,0,0,0,4.07.27,35.39,35.39,0,0,0,11.28-2,15.22,15.22,0,0,1,4.59-1,11,11,0,0,1,3.13.54,25.2,25.2,0,0,1,7.27,3.95,45.79,45.79,0,0,0,17.35,8,49.88,49.88,0,0,0,11,1.34,41.24,41.24,0,0,0,6.2-.46c10.21-1.56,15.71-6.4,20.13-10.29,3.3-2.91,5.69-5,10.23-6.28a12.07,12.07,0,0,1,3.38-.54,21.41,21.41,0,0,1,2.79.26,44.59,44.59,0,0,0,6.3.5,46.61,46.61,0,0,0,10.17-1.23C412,250.47,423,248,431.83,239c4.93-5,6.55-9.58,8-13.59a47.43,47.43,0,0,1,4.72-10.09,24.85,24.85,0,0,1,4.7-5.81,118.25,118.25,0,0,0,8.95-9.82c11.08-13.42,19.84-24,21.16-39.49a55.89,55.89,0,0,0-1.76-18.27A58.48,58.48,0,0,0,470.55,125Z"/><ellipse class="cls-4" cx="373.97" cy="126.52" rx="5.14" ry="6.55"/><path class="cls-2" d="M469.71,159.37c-1,12.22-8.08,21-19,34.16-8.82,10.67-10,9.53-14.42,16.7-6.9,11.17-5,15.48-11.39,22-6.81,7-15.68,8.93-21.63,10.25-12.75,2.81-13.63-1.52-23.15,1.14C366.09,247.54,365,257.8,350.91,260a35.94,35.94,0,0,1-13.66-.76c-12-2.68-14.51-8.89-23.91-11.77-11-3.36-14,3.26-24.68,1.9-14.15-1.81-23-15.2-38.39-38.7-5.63-8.56-12.84-19.69-18.77-36.15-5-13.85-9.19-25.55-8.24-40.74.6-9.47,5.29-20.63,14.65-42.56,9-21,13.43-31.48,17.85-36.62,6-6.94,9.49-8.06,46.19-27.27,28.5-14.91,31.47-16.86,39.47-17.45,5.72-.43,24-.86,39.1,10.24,8.18,6,10.53,11.85,21.63,17.84,8.4,4.54,11.49,2,18.6,6.45,6.52,4.14,7.93,8.17,15.94,18.22C448.22,77.05,449.3,73.79,453,80.42c9.07,16.25-2.73,25.37,6.45,44.41,2.92,6.06,6.47,10,8.73,19.36A46.28,46.28,0,0,1,469.71,159.37Z"/><path d="M334.4,165.19a1.08,1.08,0,0,0-1.08,1.14c.46,8,5.73,14.28,12.15,14.28s11.68-6.29,12.15-14.28a1.08,1.08,0,0,0-1.08-1.14Z"/><ellipse class="cls-1" cx="403.3" cy="164.48" rx="12.25" ry="9.67"/><ellipse class="cls-1" cx="287.64" cy="164.48" rx="12.25" ry="9.67"/><circle class="cls-3" cx="278.72" cy="100.12" r="7.69"/><circle class="cls-3" cx="325.1" cy="62.88" r="13.6"/><circle class="cls-3" cx="379.11" cy="62.88" r="7.27"/><circle class="cls-3" cx="415.55" cy="88.59" r="11.53"/><circle class="cls-3" cx="428.63" cy="141.03" r="9.17"/><circle class="cls-3" cx="316.32" cy="229.16" r="4.82"/><circle class="cls-3" cx="410.73" cy="209.56" r="4.82"/><circle class="cls-3" cx="353.68" cy="222.47" r="11.5"/><circle class="cls-3" cx="264.77" cy="204.17" r="6.81"/><circle class="cls-3" cx="248.59" cy="136.22" r="9.37"/><ellipse cx="323.61" cy="131.4" rx="16.1" ry="20.4"/><ellipse class="cls-1" cx="324.34" cy="120.25" rx="2.09" ry="1.64" transform="translate(9.97 264.57) rotate(-45)"/><ellipse class="cls-1" cx="330.24" cy="126.52" rx="5.14" ry="6.55"/><ellipse cx="367.33" cy="131.4" rx="16.1" ry="20.4"/><ellipse class="cls-1" cx="368.07" cy="120.25" rx="2.09" ry="1.64" transform="translate(22.77 295.49) rotate(-45)"/><ellipse class="cls-1" cx="373.97" cy="126.52" rx="5.14" ry="6.55"/></g></g></svg>